<svg width="50" height="50" viewBox="0 0 50 50" fill="none" xmlns="http://www.w3.org/2000/svg">
<path d="M38.9105 40.8479L27.0042 28.9396C21.7077 32.7051 14.4093 31.784 10.2144 26.8207C6.01943 21.8573 6.32746 14.5074 10.923 9.91247C15.5172 5.31548 22.8678 5.00613 27.8321 9.20083C32.7964 13.3955 33.718 20.6947 29.9521 25.9916L41.8584 37.9L38.9125 40.8458L38.9105 40.8479ZM19.7605 10.4166C15.8098 10.4157 12.4015 13.1889 11.5989 17.0571C10.7964 20.9254 12.8203 24.8255 16.4452 26.3963C20.0701 27.9671 24.2998 26.7767 26.5735 23.5459C28.8471 20.3151 28.5398 15.9319 25.8375 13.05L27.098 14.3L25.6771 12.8833L25.6521 12.8583C24.0933 11.2899 21.9717 10.4106 19.7605 10.4166Z" fill="#2E3A59"/>
</svg>
